<svg xmlns="http://www.w3.org/2000/svg" width="512" height="512" viewBox="0 0 512 512" fill="none">
  <path d="M300.036 116.295
           V102
           L388.007 102
           C400.153 102 410 111.847 410 123.993
           V211.964
           H396.804
           V127.292
           C396.804 121.219 391.881 116.295 385.808 116.295
           H300.036
           Z" fill="#D9D9D9"/>
  <path d="M300.036 396.705
           H384.708
           C390.781 396.705 395.705 391.781 395.705 385.708
           V299.936
           H410
           V387.907
           C410 400.054 400.153 409.9 388.007 409.9
           H300.036
           Z" fill="#D9D9D9"/>
  <path d="M210.964 115.196
           H126.292
           C120.219 115.196 115.295 120.119 115.295 126.192
           V211.964
           H101
           V123.993
           C101 111.847 110.847 102 122.993 102
           H210.964
           V115.196
           Z" fill="#D9D9D9"/>
  <path d="M212.064 395.605
           H126.292
           C120.219 395.605 115.295 390.682 115.295 384.609
           V299.936
           H102.1
           V387.907
           C102.1 400.054 111.946 409.9 124.093 409.9
           H212.064
           Z" fill="#D9D9D9"/>
  <path d="M319.285 184.036H310.267C303.092 184.036 296.213 186.888 291.139 191.961C286.066 197.035 283.214 203.914 283.214 211.089V221.023C286.16 220.421 289.179 220.107 292.231 220.107C299.406 220.107 306.285 217.254 311.359 212.181C316.432 207.107 319.285 200.228 319.285 193.053V184.036ZM207.83 229.274C202.719 229.735 197.783 231.278 193.344 233.783C194.003 238.84 195.726 243.717 198.425 248.085C201.947 253.783 206.982 258.396 212.973 261.391C218.965 264.387 225.676 265.648 232.348 265.046C237.458 264.585 242.387 263.033 246.825 260.528C246.166 255.475 244.45 250.601 241.753 246.235C238.231 240.537 233.196 235.925 227.205 232.929C221.213 229.933 214.502 228.673 207.83 229.274ZM337.32 193.053C337.32 205.012 332.566 216.477 324.111 224.933C315.655 233.389 304.19 238.142 292.231 238.142C287.443 238.142 282.784 239.416 278.705 241.771C276.674 242.943 274.789 244.383 273.104 246.068C268.03 251.142 265.178 258.021 265.178 265.196C265.178 272.604 266.967 278.128 269.22 284.887C271.476 291.654 274.196 299.658 274.196 310.285C274.196 316.47 273.123 322.563 271.087 328.32H319.285C324.265 328.32 328.303 332.358 328.303 337.338C328.303 342.318 324.265 346.356 319.285 346.356H193.036C188.055 346.356 184.018 342.318 184.018 337.338C184.018 332.358 188.055 328.32 193.036 328.32H251.299C254.457 322.856 256.16 316.646 256.16 310.285C256.16 302.877 254.371 297.352 252.118 290.593C251.003 287.25 249.772 283.603 248.816 279.489C244.076 281.343 239.085 282.55 233.968 283.011C223.96 283.914 213.894 282.01 204.907 277.516C195.921 273.022 188.366 266.115 183.084 257.569C177.802 249.022 175 239.173 175 229.125C175 226.286 176.34 223.615 178.611 221.912C186.648 215.884 196.204 212.212 206.21 211.309C216.218 210.407 226.284 212.311 235.271 216.804C244.257 221.298 251.812 228.205 257.094 236.751C257.115 236.785 257.134 236.822 257.155 236.857C258.151 235.625 259.222 234.447 260.352 233.316C261.869 231.8 263.483 230.405 265.178 229.133V211.089C265.178 199.131 269.932 187.665 278.388 179.21C286.843 170.754 298.309 166 310.267 166H323.794C327.381 166 330.821 167.426 333.357 169.963C335.894 172.5 337.32 175.939 337.32 179.527V193.053Z" fill="#90EE90"/>
  <path d="M365.576 132.319L359.775 150H355.103L363.027 128.672H366.001L365.576 132.319ZM370.396 150L364.58 132.319L364.111 128.672H367.114L375.083 150H370.396ZM370.132 142.061V145.503H358.867V142.061H370.132ZM381.733 128.672V150H377.354V128.672H381.733Z" fill="#BBBBBB"/>
</svg>